<svg width="32" height="32" viewBox="0 0 24 24" fill="none" xmlns="http://www.w3.org/2000/svg">
  <path d="M12 22C12 22 20 18 20 12V5L12 2L4 5V12C4 18 12 22 12 22Z" fill="#c4a7e7" stroke="#c4a7e7" stroke-width="2" stroke-linecap="round" stroke-linejoin="round"/>
  <circle cx="12" cy="12" r="5" fill="#fff"/>
  <circle cx="12" cy="12" r="5" stroke="#c4a7e7" stroke-width="1.2"/>
  <path d="M12 7V17M7 12H17" stroke="#c4a7e7" stroke-width="1"/>
  <path d="M12 7C13.5 8.5 14.5 10 14.5 12C14.5 14 13.5 15.5 12 17C10.5 15.5 9.5 14 9.5 12C9.5 10 10.5 8.5 12 7Z" stroke="#c4a7e7" stroke-width="1"/>
</svg>
