<svg xmlns="http://www.w3.org/2000/svg" width="1200" height="820" viewBox="0 0 1200 820">
<rect width="1200" height="820" fill="#f8fafc"/>
<text x="60" y="48" font-family="Inter, Arial, sans-serif" font-size="28" font-weight="700" fill="#0f172a" text-anchor="start">Negative Selection Algorithm / V-Detector Geometry</text>
<text x="60" y="76" font-family="Inter, Arial, sans-serif" font-size="15" font-weight="400" fill="#475569" text-anchor="start">2D teaching view: self samples reject nearby candidates; surviving mature detectors cover non-self space.</text>
<rect x="90" y="92" width="760" height="640" rx="8" fill="#ffffff" stroke="#cbd5e1"/>
<line x1="90.00" y1="92" x2="90.00" y2="732" stroke="#e2e8f0"/>
<line x1="90" y1="92.00" x2="850" y2="92.00" stroke="#e2e8f0"/>
<line x1="159.09" y1="92" x2="159.09" y2="732" stroke="#e2e8f0"/>
<line x1="90" y1="150.18" x2="850" y2="150.18" stroke="#e2e8f0"/>
<line x1="228.18" y1="92" x2="228.18" y2="732" stroke="#e2e8f0"/>
<line x1="90" y1="208.36" x2="850" y2="208.36" stroke="#e2e8f0"/>
<line x1="297.27" y1="92" x2="297.27" y2="732" stroke="#e2e8f0"/>
<line x1="90" y1="266.55" x2="850" y2="266.55" stroke="#e2e8f0"/>
<line x1="366.36" y1="92" x2="366.36" y2="732" stroke="#e2e8f0"/>
<line x1="90" y1="324.73" x2="850" y2="324.73" stroke="#e2e8f0"/>
<line x1="435.45" y1="92" x2="435.45" y2="732" stroke="#e2e8f0"/>
<line x1="90" y1="382.91" x2="850" y2="382.91" stroke="#e2e8f0"/>
<line x1="504.55" y1="92" x2="504.55" y2="732" stroke="#e2e8f0"/>
<line x1="90" y1="441.09" x2="850" y2="441.09" stroke="#e2e8f0"/>
<line x1="573.64" y1="92" x2="573.64" y2="732" stroke="#e2e8f0"/>
<line x1="90" y1="499.27" x2="850" y2="499.27" stroke="#e2e8f0"/>
<line x1="642.73" y1="92" x2="642.73" y2="732" stroke="#e2e8f0"/>
<line x1="90" y1="557.45" x2="850" y2="557.45" stroke="#e2e8f0"/>
<line x1="711.82" y1="92" x2="711.82" y2="732" stroke="#e2e8f0"/>
<line x1="90" y1="615.64" x2="850" y2="615.64" stroke="#e2e8f0"/>
<line x1="780.91" y1="92" x2="780.91" y2="732" stroke="#e2e8f0"/>
<line x1="90" y1="673.82" x2="850" y2="673.82" stroke="#e2e8f0"/>
<line x1="850.00" y1="92" x2="850.00" y2="732" stroke="#e2e8f0"/>
<line x1="90" y1="732.00" x2="850" y2="732.00" stroke="#e2e8f0"/>
<rect x="248.91" y="225.82" width="442.18" height="442.18" fill="#f1f5f9" stroke="#94a3b8" stroke-dasharray="6 6"/>
<text x="255.81818181818178" y="214.18181818181822" font-family="Inter, Arial, sans-serif" font-size="13" font-weight="600" fill="#64748b" text-anchor="start">self region</text>
<circle cx="190.17" cy="853.76" r="336.38" fill="#22c55e" stroke="#166534" stroke-width="2.0" opacity="0.2" />
<circle cx="787.40" cy="673.97" r="208.83" fill="#22c55e" stroke="#166534" stroke-width="2.0" opacity="0.2" />
<circle cx="107.71" cy="524.22" r="169.63" fill="#22c55e" stroke="#166534" stroke-width="2.0" opacity="0.2" />
<circle cx="331.64" cy="692.33" r="169.55" fill="#22c55e" stroke="#166534" stroke-width="2.0" opacity="0.2" />
<circle cx="631.56" cy="73.46" r="168.41" fill="#22c55e" stroke="#166534" stroke-width="2.0" opacity="0.2" />
<circle cx="466.03" cy="65.49" r="153.75" fill="#22c55e" stroke="#166534" stroke-width="2.0" opacity="0.2" />
<circle cx="83.73" cy="407.02" r="148.79" fill="#22c55e" stroke="#166534" stroke-width="2.0" opacity="0.2" />
<circle cx="169.46" cy="279.86" r="115.21" fill="#22c55e" stroke="#166534" stroke-width="2.0" opacity="0.2" />
<circle cx="740.86" cy="498.56" r="110.15" fill="#22c55e" stroke="#166534" stroke-width="2.0" opacity="0.2" />
<circle cx="591.80" cy="149.42" r="98.96" fill="#22c55e" stroke="#166534" stroke-width="2.0" opacity="0.2" />
<circle cx="299.06" cy="546.69" r="93.05" fill="#22c55e" stroke="#166534" stroke-width="2.0" opacity="0.2" />
<circle cx="712.46" cy="460.46" r="79.66" fill="#22c55e" stroke="#166534" stroke-width="2.0" opacity="0.2" />
<circle cx="713.38" cy="410.71" r="73.05" fill="#22c55e" stroke="#166534" stroke-width="2.0" opacity="0.2" />
<circle cx="485.63" cy="161.66" r="71.93" fill="#22c55e" stroke="#166534" stroke-width="2.0" opacity="0.2" />
<circle cx="601.50" cy="206.38" r="65.60" fill="#22c55e" stroke="#166534" stroke-width="2.0" opacity="0.2" />
<circle cx="514.31" cy="452.97" r="5.53" fill="#ef4444" stroke="#991b1b" stroke-width="1.0" opacity="0.65" />
<circle cx="507.47" cy="267.47" r="5.53" fill="#ef4444" stroke="#991b1b" stroke-width="1.0" opacity="0.65" />
<circle cx="542.89" cy="472.65" r="5.53" fill="#ef4444" stroke="#991b1b" stroke-width="1.0" opacity="0.65" />
<circle cx="383.47" cy="286.03" r="5.53" fill="#ef4444" stroke="#991b1b" stroke-width="1.0" opacity="0.65" />
<circle cx="525.88" cy="358.92" r="5.53" fill="#ef4444" stroke="#991b1b" stroke-width="1.0" opacity="0.65" />
<circle cx="508.80" cy="386.80" r="5.53" fill="#ef4444" stroke="#991b1b" stroke-width="1.0" opacity="0.65" />
<circle cx="481.53" cy="427.00" r="5.53" fill="#ef4444" stroke="#991b1b" stroke-width="1.0" opacity="0.65" />
<circle cx="530.81" cy="496.04" r="5.53" fill="#ef4444" stroke="#991b1b" stroke-width="1.0" opacity="0.65" />
<circle cx="456.69" cy="380.22" r="5.53" fill="#ef4444" stroke="#991b1b" stroke-width="1.0" opacity="0.65" />
<circle cx="455.44" cy="486.67" r="5.53" fill="#ef4444" stroke="#991b1b" stroke-width="1.0" opacity="0.65" />
<circle cx="428.91" cy="369.37" r="5.53" fill="#ef4444" stroke="#991b1b" stroke-width="1.0" opacity="0.65" />
<circle cx="417.73" cy="340.94" r="5.53" fill="#ef4444" stroke="#991b1b" stroke-width="1.0" opacity="0.65" />
<circle cx="460.66" cy="349.14" r="5.53" fill="#ef4444" stroke="#991b1b" stroke-width="1.0" opacity="0.65" />
<circle cx="519.68" cy="462.11" r="5.53" fill="#ef4444" stroke="#991b1b" stroke-width="1.0" opacity="0.65" />
<circle cx="433.88" cy="464.07" r="5.53" fill="#ef4444" stroke="#991b1b" stroke-width="1.0" opacity="0.65" />
<circle cx="514.35" cy="266.71" r="5.53" fill="#ef4444" stroke="#991b1b" stroke-width="1.0" opacity="0.65" />
<circle cx="483.00" cy="399.79" r="5.53" fill="#ef4444" stroke="#991b1b" stroke-width="1.0" opacity="0.65" />
<circle cx="319.08" cy="366.06" r="5.53" fill="#ef4444" stroke="#991b1b" stroke-width="1.0" opacity="0.65" />
<circle cx="414.80" cy="289.88" r="5.53" fill="#ef4444" stroke="#991b1b" stroke-width="1.0" opacity="0.65" />
<circle cx="552.53" cy="483.87" r="5.53" fill="#ef4444" stroke="#991b1b" stroke-width="1.0" opacity="0.65" />
<circle cx="323.21" cy="379.80" r="5.53" fill="#ef4444" stroke="#991b1b" stroke-width="1.0" opacity="0.65" />
<circle cx="535.02" cy="378.04" r="5.53" fill="#ef4444" stroke="#991b1b" stroke-width="1.0" opacity="0.65" />
<circle cx="495.15" cy="266.36" r="5.53" fill="#ef4444" stroke="#991b1b" stroke-width="1.0" opacity="0.65" />
<circle cx="303.50" cy="304.21" r="5.53" fill="#38bdf8" stroke="#0369a1" stroke-width="1.0" opacity="0.7" />
<circle cx="597.18" cy="208.75" r="5.53" fill="#38bdf8" stroke="#0369a1" stroke-width="1.0" opacity="0.7" />
<circle cx="252.86" cy="568.77" r="5.53" fill="#38bdf8" stroke="#0369a1" stroke-width="1.0" opacity="0.7" />
<circle cx="226.22" cy="571.91" r="5.53" fill="#38bdf8" stroke="#0369a1" stroke-width="1.0" opacity="0.7" />
<circle cx="631.69" cy="627.15" r="5.53" fill="#38bdf8" stroke="#0369a1" stroke-width="1.0" opacity="0.7" />
<circle cx="491.64" cy="578.45" r="5.53" fill="#38bdf8" stroke="#0369a1" stroke-width="1.0" opacity="0.7" />
<circle cx="328.13" cy="451.81" r="5.53" fill="#38bdf8" stroke="#0369a1" stroke-width="1.0" opacity="0.7" />
<circle cx="703.29" cy="348.93" r="5.53" fill="#38bdf8" stroke="#0369a1" stroke-width="1.0" opacity="0.7" />
<circle cx="134.52" cy="542.42" r="5.53" fill="#38bdf8" stroke="#0369a1" stroke-width="1.0" opacity="0.7" />
<circle cx="225.91" cy="195.98" r="5.53" fill="#38bdf8" stroke="#0369a1" stroke-width="1.0" opacity="0.7" />
<circle cx="684.00" cy="233.94" r="5.53" fill="#38bdf8" stroke="#0369a1" stroke-width="1.0" opacity="0.7" />
<circle cx="695.49" cy="269.60" r="5.53" fill="#38bdf8" stroke="#0369a1" stroke-width="1.0" opacity="0.7" />
<circle cx="780.44" cy="241.08" r="5.53" fill="#38bdf8" stroke="#0369a1" stroke-width="1.0" opacity="0.7" />
<circle cx="301.91" cy="208.40" r="5.53" fill="#38bdf8" stroke="#0369a1" stroke-width="1.0" opacity="0.7" />
<circle cx="460.87" cy="263.63" r="5.53" fill="#38bdf8" stroke="#0369a1" stroke-width="1.0" opacity="0.7" />
<circle cx="376.18" cy="452.83" r="5.53" fill="#38bdf8" stroke="#0369a1" stroke-width="1.0" opacity="0.7" />
<circle cx="414.77" cy="355.89" r="31.09" fill="#64748b" stroke="#334155" stroke-width="1.0" opacity="0.17" />
<circle cx="414.77" cy="355.89" r="4.49" fill="#334155" stroke="#0f172a" stroke-width="1.0" opacity="0.9" />
<circle cx="406.20" cy="393.95" r="31.09" fill="#64748b" stroke="#334155" stroke-width="1.0" opacity="0.17" />
<circle cx="406.20" cy="393.95" r="4.49" fill="#334155" stroke="#0f172a" stroke-width="1.0" opacity="0.9" />
<circle cx="400.59" cy="397.19" r="31.09" fill="#64748b" stroke="#334155" stroke-width="1.0" opacity="0.17" />
<circle cx="400.59" cy="397.19" r="4.49" fill="#334155" stroke="#0f172a" stroke-width="1.0" opacity="0.9" />
<circle cx="416.60" cy="322.57" r="31.09" fill="#64748b" stroke="#334155" stroke-width="1.0" opacity="0.17" />
<circle cx="416.60" cy="322.57" r="4.49" fill="#334155" stroke="#0f172a" stroke-width="1.0" opacity="0.9" />
<circle cx="399.42" cy="385.31" r="31.09" fill="#64748b" stroke="#334155" stroke-width="1.0" opacity="0.17" />
<circle cx="399.42" cy="385.31" r="4.49" fill="#334155" stroke="#0f172a" stroke-width="1.0" opacity="0.9" />
<circle cx="429.96" cy="354.03" r="31.09" fill="#64748b" stroke="#334155" stroke-width="1.0" opacity="0.17" />
<circle cx="429.96" cy="354.03" r="4.49" fill="#334155" stroke="#0f172a" stroke-width="1.0" opacity="0.9" />
<circle cx="418.00" cy="395.23" r="31.09" fill="#64748b" stroke="#334155" stroke-width="1.0" opacity="0.17" />
<circle cx="418.00" cy="395.23" r="4.49" fill="#334155" stroke="#0f172a" stroke-width="1.0" opacity="0.9" />
<circle cx="413.82" cy="343.20" r="31.09" fill="#64748b" stroke="#334155" stroke-width="1.0" opacity="0.17" />
<circle cx="413.82" cy="343.20" r="4.49" fill="#334155" stroke="#0f172a" stroke-width="1.0" opacity="0.9" />
<circle cx="372.93" cy="380.10" r="31.09" fill="#64748b" stroke="#334155" stroke-width="1.0" opacity="0.17" />
<circle cx="372.93" cy="380.10" r="4.49" fill="#334155" stroke="#0f172a" stroke-width="1.0" opacity="0.9" />
<circle cx="355.62" cy="406.72" r="31.09" fill="#64748b" stroke="#334155" stroke-width="1.0" opacity="0.17" />
<circle cx="355.62" cy="406.72" r="4.49" fill="#334155" stroke="#0f172a" stroke-width="1.0" opacity="0.9" />
<circle cx="357.47" cy="372.98" r="31.09" fill="#64748b" stroke="#334155" stroke-width="1.0" opacity="0.17" />
<circle cx="357.47" cy="372.98" r="4.49" fill="#334155" stroke="#0f172a" stroke-width="1.0" opacity="0.9" />
<circle cx="375.32" cy="356.77" r="31.09" fill="#64748b" stroke="#334155" stroke-width="1.0" opacity="0.17" />
<circle cx="375.32" cy="356.77" r="4.49" fill="#334155" stroke="#0f172a" stroke-width="1.0" opacity="0.9" />
<circle cx="419.60" cy="371.44" r="31.09" fill="#64748b" stroke="#334155" stroke-width="1.0" opacity="0.17" />
<circle cx="419.60" cy="371.44" r="4.49" fill="#334155" stroke="#0f172a" stroke-width="1.0" opacity="0.9" />
<circle cx="336.48" cy="382.69" r="31.09" fill="#64748b" stroke="#334155" stroke-width="1.0" opacity="0.17" />
<circle cx="336.48" cy="382.69" r="4.49" fill="#334155" stroke="#0f172a" stroke-width="1.0" opacity="0.9" />
<circle cx="413.22" cy="361.83" r="31.09" fill="#64748b" stroke="#334155" stroke-width="1.0" opacity="0.17" />
<circle cx="413.22" cy="361.83" r="4.49" fill="#334155" stroke="#0f172a" stroke-width="1.0" opacity="0.9" />
<circle cx="367.15" cy="380.74" r="31.09" fill="#64748b" stroke="#334155" stroke-width="1.0" opacity="0.17" />
<circle cx="367.15" cy="380.74" r="4.49" fill="#334155" stroke="#0f172a" stroke-width="1.0" opacity="0.9" />
<circle cx="384.30" cy="391.34" r="31.09" fill="#64748b" stroke="#334155" stroke-width="1.0" opacity="0.17" />
<circle cx="384.30" cy="391.34" r="4.49" fill="#334155" stroke="#0f172a" stroke-width="1.0" opacity="0.9" />
<circle cx="447.71" cy="391.30" r="31.09" fill="#64748b" stroke="#334155" stroke-width="1.0" opacity="0.17" />
<circle cx="447.71" cy="391.30" r="4.49" fill="#334155" stroke="#0f172a" stroke-width="1.0" opacity="0.9" />
<circle cx="413.72" cy="337.15" r="31.09" fill="#64748b" stroke="#334155" stroke-width="1.0" opacity="0.17" />
<circle cx="413.72" cy="337.15" r="4.49" fill="#334155" stroke="#0f172a" stroke-width="1.0" opacity="0.9" />
<circle cx="396.58" cy="369.03" r="31.09" fill="#64748b" stroke="#334155" stroke-width="1.0" opacity="0.17" />
<circle cx="396.58" cy="369.03" r="4.49" fill="#334155" stroke="#0f172a" stroke-width="1.0" opacity="0.9" />
<circle cx="418.16" cy="363.41" r="31.09" fill="#64748b" stroke="#334155" stroke-width="1.0" opacity="0.17" />
<circle cx="418.16" cy="363.41" r="4.49" fill="#334155" stroke="#0f172a" stroke-width="1.0" opacity="0.9" />
<circle cx="376.64" cy="363.02" r="31.09" fill="#64748b" stroke="#334155" stroke-width="1.0" opacity="0.17" />
<circle cx="376.64" cy="363.02" r="4.49" fill="#334155" stroke="#0f172a" stroke-width="1.0" opacity="0.9" />
<circle cx="456.97" cy="414.96" r="31.09" fill="#64748b" stroke="#334155" stroke-width="1.0" opacity="0.17" />
<circle cx="456.97" cy="414.96" r="4.49" fill="#334155" stroke="#0f172a" stroke-width="1.0" opacity="0.9" />
<circle cx="441.45" cy="361.64" r="31.09" fill="#64748b" stroke="#334155" stroke-width="1.0" opacity="0.17" />
<circle cx="441.45" cy="361.64" r="4.49" fill="#334155" stroke="#0f172a" stroke-width="1.0" opacity="0.9" />
<circle cx="394.78" cy="301.44" r="31.09" fill="#64748b" stroke="#334155" stroke-width="1.0" opacity="0.17" />
<circle cx="394.78" cy="301.44" r="4.49" fill="#334155" stroke="#0f172a" stroke-width="1.0" opacity="0.9" />
<circle cx="438.43" cy="403.83" r="31.09" fill="#64748b" stroke="#334155" stroke-width="1.0" opacity="0.17" />
<circle cx="438.43" cy="403.83" r="4.49" fill="#334155" stroke="#0f172a" stroke-width="1.0" opacity="0.9" />
<circle cx="417.04" cy="347.00" r="31.09" fill="#64748b" stroke="#334155" stroke-width="1.0" opacity="0.17" />
<circle cx="417.04" cy="347.00" r="4.49" fill="#334155" stroke="#0f172a" stroke-width="1.0" opacity="0.9" />
<circle cx="408.86" cy="343.60" r="31.09" fill="#64748b" stroke="#334155" stroke-width="1.0" opacity="0.17" />
<circle cx="408.86" cy="343.60" r="4.49" fill="#334155" stroke="#0f172a" stroke-width="1.0" opacity="0.9" />
<circle cx="412.66" cy="344.10" r="31.09" fill="#64748b" stroke="#334155" stroke-width="1.0" opacity="0.17" />
<circle cx="412.66" cy="344.10" r="4.49" fill="#334155" stroke="#0f172a" stroke-width="1.0" opacity="0.9" />
<circle cx="459.45" cy="387.08" r="31.09" fill="#64748b" stroke="#334155" stroke-width="1.0" opacity="0.17" />
<circle cx="459.45" cy="387.08" r="4.49" fill="#334155" stroke="#0f172a" stroke-width="1.0" opacity="0.9" />
<circle cx="421.04" cy="380.28" r="31.09" fill="#64748b" stroke="#334155" stroke-width="1.0" opacity="0.17" />
<circle cx="421.04" cy="380.28" r="4.49" fill="#334155" stroke="#0f172a" stroke-width="1.0" opacity="0.9" />
<circle cx="418.68" cy="403.44" r="31.09" fill="#64748b" stroke="#334155" stroke-width="1.0" opacity="0.17" />
<circle cx="418.68" cy="403.44" r="4.49" fill="#334155" stroke="#0f172a" stroke-width="1.0" opacity="0.9" />
<circle cx="396.72" cy="371.73" r="31.09" fill="#64748b" stroke="#334155" stroke-width="1.0" opacity="0.17" />
<circle cx="396.72" cy="371.73" r="4.49" fill="#334155" stroke="#0f172a" stroke-width="1.0" opacity="0.9" />
<circle cx="442.67" cy="328.81" r="31.09" fill="#64748b" stroke="#334155" stroke-width="1.0" opacity="0.17" />
<circle cx="442.67" cy="328.81" r="4.49" fill="#334155" stroke="#0f172a" stroke-width="1.0" opacity="0.9" />
<circle cx="468.07" cy="447.95" r="31.09" fill="#64748b" stroke="#334155" stroke-width="1.0" opacity="0.17" />
<circle cx="468.07" cy="447.95" r="4.49" fill="#334155" stroke="#0f172a" stroke-width="1.0" opacity="0.9" />
<circle cx="542.95" cy="475.82" r="31.09" fill="#64748b" stroke="#334155" stroke-width="1.0" opacity="0.17" />
<circle cx="542.95" cy="475.82" r="4.49" fill="#334155" stroke="#0f172a" stroke-width="1.0" opacity="0.9" />
<circle cx="500.76" cy="431.72" r="31.09" fill="#64748b" stroke="#334155" stroke-width="1.0" opacity="0.17" />
<circle cx="500.76" cy="431.72" r="4.49" fill="#334155" stroke="#0f172a" stroke-width="1.0" opacity="0.9" />
<circle cx="566.13" cy="413.41" r="31.09" fill="#64748b" stroke="#334155" stroke-width="1.0" opacity="0.17" />
<circle cx="566.13" cy="413.41" r="4.49" fill="#334155" stroke="#0f172a" stroke-width="1.0" opacity="0.9" />
<circle cx="505.93" cy="438.03" r="31.09" fill="#64748b" stroke="#334155" stroke-width="1.0" opacity="0.17" />
<circle cx="505.93" cy="438.03" r="4.49" fill="#334155" stroke="#0f172a" stroke-width="1.0" opacity="0.9" />
<circle cx="508.86" cy="394.00" r="31.09" fill="#64748b" stroke="#334155" stroke-width="1.0" opacity="0.17" />
<circle cx="508.86" cy="394.00" r="4.49" fill="#334155" stroke="#0f172a" stroke-width="1.0" opacity="0.9" />
<circle cx="502.10" cy="436.52" r="31.09" fill="#64748b" stroke="#334155" stroke-width="1.0" opacity="0.17" />
<circle cx="502.10" cy="436.52" r="4.49" fill="#334155" stroke="#0f172a" stroke-width="1.0" opacity="0.9" />
<circle cx="531.76" cy="432.27" r="31.09" fill="#64748b" stroke="#334155" stroke-width="1.0" opacity="0.17" />
<circle cx="531.76" cy="432.27" r="4.49" fill="#334155" stroke="#0f172a" stroke-width="1.0" opacity="0.9" />
<circle cx="510.87" cy="455.38" r="31.09" fill="#64748b" stroke="#334155" stroke-width="1.0" opacity="0.17" />
<circle cx="510.87" cy="455.38" r="4.49" fill="#334155" stroke="#0f172a" stroke-width="1.0" opacity="0.9" />
<circle cx="517.93" cy="439.78" r="31.09" fill="#64748b" stroke="#334155" stroke-width="1.0" opacity="0.17" />
<circle cx="517.93" cy="439.78" r="4.49" fill="#334155" stroke="#0f172a" stroke-width="1.0" opacity="0.9" />
<circle cx="562.68" cy="414.26" r="31.09" fill="#64748b" stroke="#334155" stroke-width="1.0" opacity="0.17" />
<circle cx="562.68" cy="414.26" r="4.49" fill="#334155" stroke="#0f172a" stroke-width="1.0" opacity="0.9" />
<circle cx="517.45" cy="413.90" r="31.09" fill="#64748b" stroke="#334155" stroke-width="1.0" opacity="0.17" />
<circle cx="517.45" cy="413.90" r="4.49" fill="#334155" stroke="#0f172a" stroke-width="1.0" opacity="0.9" />
<circle cx="505.45" cy="404.97" r="31.09" fill="#64748b" stroke="#334155" stroke-width="1.0" opacity="0.17" />
<circle cx="505.45" cy="404.97" r="4.49" fill="#334155" stroke="#0f172a" stroke-width="1.0" opacity="0.9" />
<circle cx="518.16" cy="415.88" r="31.09" fill="#64748b" stroke="#334155" stroke-width="1.0" opacity="0.17" />
<circle cx="518.16" cy="415.88" r="4.49" fill="#334155" stroke="#0f172a" stroke-width="1.0" opacity="0.9" />
<circle cx="469.31" cy="421.39" r="31.09" fill="#64748b" stroke="#334155" stroke-width="1.0" opacity="0.17" />
<circle cx="469.31" cy="421.39" r="4.49" fill="#334155" stroke="#0f172a" stroke-width="1.0" opacity="0.9" />
<circle cx="454.21" cy="476.82" r="31.09" fill="#64748b" stroke="#334155" stroke-width="1.0" opacity="0.17" />
<circle cx="454.21" cy="476.82" r="4.49" fill="#334155" stroke="#0f172a" stroke-width="1.0" opacity="0.9" />
<circle cx="506.79" cy="450.40" r="31.09" fill="#64748b" stroke="#334155" stroke-width="1.0" opacity="0.17" />
<circle cx="506.79" cy="450.40" r="4.49" fill="#334155" stroke="#0f172a" stroke-width="1.0" opacity="0.9" />
<circle cx="524.60" cy="377.21" r="31.09" fill="#64748b" stroke="#334155" stroke-width="1.0" opacity="0.17" />
<circle cx="524.60" cy="377.21" r="4.49" fill="#334155" stroke="#0f172a" stroke-width="1.0" opacity="0.9" />
<circle cx="486.76" cy="443.98" r="31.09" fill="#64748b" stroke="#334155" stroke-width="1.0" opacity="0.17" />
<circle cx="486.76" cy="443.98" r="4.49" fill="#334155" stroke="#0f172a" stroke-width="1.0" opacity="0.9" />
<circle cx="526.17" cy="417.98" r="31.09" fill="#64748b" stroke="#334155" stroke-width="1.0" opacity="0.17" />
<circle cx="526.17" cy="417.98" r="4.49" fill="#334155" stroke="#0f172a" stroke-width="1.0" opacity="0.9" />
<circle cx="511.66" cy="434.25" r="31.09" fill="#64748b" stroke="#334155" stroke-width="1.0" opacity="0.17" />
<circle cx="511.66" cy="434.25" r="4.49" fill="#334155" stroke="#0f172a" stroke-width="1.0" opacity="0.9" />
<circle cx="545.06" cy="417.35" r="31.09" fill="#64748b" stroke="#334155" stroke-width="1.0" opacity="0.17" />
<circle cx="545.06" cy="417.35" r="4.49" fill="#334155" stroke="#0f172a" stroke-width="1.0" opacity="0.9" />
<circle cx="479.08" cy="431.30" r="31.09" fill="#64748b" stroke="#334155" stroke-width="1.0" opacity="0.17" />
<circle cx="479.08" cy="431.30" r="4.49" fill="#334155" stroke="#0f172a" stroke-width="1.0" opacity="0.9" />
<circle cx="519.70" cy="454.00" r="31.09" fill="#64748b" stroke="#334155" stroke-width="1.0" opacity="0.17" />
<circle cx="519.70" cy="454.00" r="4.49" fill="#334155" stroke="#0f172a" stroke-width="1.0" opacity="0.9" />
<circle cx="528.24" cy="449.42" r="31.09" fill="#64748b" stroke="#334155" stroke-width="1.0" opacity="0.17" />
<circle cx="528.24" cy="449.42" r="4.49" fill="#334155" stroke="#0f172a" stroke-width="1.0" opacity="0.9" />
<circle cx="555.30" cy="424.97" r="31.09" fill="#64748b" stroke="#334155" stroke-width="1.0" opacity="0.17" />
<circle cx="555.30" cy="424.97" r="4.49" fill="#334155" stroke="#0f172a" stroke-width="1.0" opacity="0.9" />
<circle cx="521.76" cy="443.21" r="31.09" fill="#64748b" stroke="#334155" stroke-width="1.0" opacity="0.17" />
<circle cx="521.76" cy="443.21" r="4.49" fill="#334155" stroke="#0f172a" stroke-width="1.0" opacity="0.9" />
<circle cx="513.86" cy="475.95" r="31.09" fill="#64748b" stroke="#334155" stroke-width="1.0" opacity="0.17" />
<circle cx="513.86" cy="475.95" r="4.49" fill="#334155" stroke="#0f172a" stroke-width="1.0" opacity="0.9" />
<circle cx="475.37" cy="421.01" r="31.09" fill="#64748b" stroke="#334155" stroke-width="1.0" opacity="0.17" />
<circle cx="475.37" cy="421.01" r="4.49" fill="#334155" stroke="#0f172a" stroke-width="1.0" opacity="0.9" />
<circle cx="437.48" cy="409.75" r="31.09" fill="#64748b" stroke="#334155" stroke-width="1.0" opacity="0.17" />
<circle cx="437.48" cy="409.75" r="4.49" fill="#334155" stroke="#0f172a" stroke-width="1.0" opacity="0.9" />
<circle cx="452.01" cy="411.84" r="31.09" fill="#64748b" stroke="#334155" stroke-width="1.0" opacity="0.17" />
<circle cx="452.01" cy="411.84" r="4.49" fill="#334155" stroke="#0f172a" stroke-width="1.0" opacity="0.9" />
<circle cx="486.23" cy="411.33" r="31.09" fill="#64748b" stroke="#334155" stroke-width="1.0" opacity="0.17" />
<circle cx="486.23" cy="411.33" r="4.49" fill="#334155" stroke="#0f172a" stroke-width="1.0" opacity="0.9" />
<circle cx="473.17" cy="344.39" r="31.09" fill="#64748b" stroke="#334155" stroke-width="1.0" opacity="0.17" />
<circle cx="473.17" cy="344.39" r="4.49" fill="#334155" stroke="#0f172a" stroke-width="1.0" opacity="0.9" />
<circle cx="500.21" cy="283.73" r="31.09" fill="#64748b" stroke="#334155" stroke-width="1.0" opacity="0.17" />
<circle cx="500.21" cy="283.73" r="4.49" fill="#334155" stroke="#0f172a" stroke-width="1.0" opacity="0.9" />
<circle cx="468.41" cy="318.67" r="31.09" fill="#64748b" stroke="#334155" stroke-width="1.0" opacity="0.17" />
<circle cx="468.41" cy="318.67" r="4.49" fill="#334155" stroke="#0f172a" stroke-width="1.0" opacity="0.9" />
<circle cx="466.13" cy="332.95" r="31.09" fill="#64748b" stroke="#334155" stroke-width="1.0" opacity="0.17" />
<circle cx="466.13" cy="332.95" r="4.49" fill="#334155" stroke="#0f172a" stroke-width="1.0" opacity="0.9" />
<circle cx="496.57" cy="324.15" r="31.09" fill="#64748b" stroke="#334155" stroke-width="1.0" opacity="0.17" />
<circle cx="496.57" cy="324.15" r="4.49" fill="#334155" stroke="#0f172a" stroke-width="1.0" opacity="0.9" />
<circle cx="468.76" cy="329.25" r="31.09" fill="#64748b" stroke="#334155" stroke-width="1.0" opacity="0.17" />
<circle cx="468.76" cy="329.25" r="4.49" fill="#334155" stroke="#0f172a" stroke-width="1.0" opacity="0.9" />
<circle cx="454.86" cy="339.11" r="31.09" fill="#64748b" stroke="#334155" stroke-width="1.0" opacity="0.17" />
<circle cx="454.86" cy="339.11" r="4.49" fill="#334155" stroke="#0f172a" stroke-width="1.0" opacity="0.9" />
<circle cx="500.40" cy="316.23" r="31.09" fill="#64748b" stroke="#334155" stroke-width="1.0" opacity="0.17" />
<circle cx="500.40" cy="316.23" r="4.49" fill="#334155" stroke="#0f172a" stroke-width="1.0" opacity="0.9" />
<circle cx="493.36" cy="312.82" r="31.09" fill="#64748b" stroke="#334155" stroke-width="1.0" opacity="0.17" />
<circle cx="493.36" cy="312.82" r="4.49" fill="#334155" stroke="#0f172a" stroke-width="1.0" opacity="0.9" />
<circle cx="453.21" cy="319.74" r="31.09" fill="#64748b" stroke="#334155" stroke-width="1.0" opacity="0.17" />
<circle cx="453.21" cy="319.74" r="4.49" fill="#334155" stroke="#0f172a" stroke-width="1.0" opacity="0.9" />
<circle cx="456.45" cy="312.93" r="31.09" fill="#64748b" stroke="#334155" stroke-width="1.0" opacity="0.17" />
<circle cx="456.45" cy="312.93" r="4.49" fill="#334155" stroke="#0f172a" stroke-width="1.0" opacity="0.9" />
<circle cx="460.93" cy="319.20" r="31.09" fill="#64748b" stroke="#334155" stroke-width="1.0" opacity="0.17" />
<circle cx="460.93" cy="319.20" r="4.49" fill="#334155" stroke="#0f172a" stroke-width="1.0" opacity="0.9" />
<circle cx="436.66" cy="329.52" r="31.09" fill="#64748b" stroke="#334155" stroke-width="1.0" opacity="0.17" />
<circle cx="436.66" cy="329.52" r="4.49" fill="#334155" stroke="#0f172a" stroke-width="1.0" opacity="0.9" />
<circle cx="510.00" cy="326.76" r="31.09" fill="#64748b" stroke="#334155" stroke-width="1.0" opacity="0.17" />
<circle cx="510.00" cy="326.76" r="4.49" fill="#334155" stroke="#0f172a" stroke-width="1.0" opacity="0.9" />
<circle cx="444.51" cy="306.22" r="31.09" fill="#64748b" stroke="#334155" stroke-width="1.0" opacity="0.17" />
<circle cx="444.51" cy="306.22" r="4.49" fill="#334155" stroke="#0f172a" stroke-width="1.0" opacity="0.9" />
<circle cx="504.03" cy="342.70" r="31.09" fill="#64748b" stroke="#334155" stroke-width="1.0" opacity="0.17" />
<circle cx="504.03" cy="342.70" r="4.49" fill="#334155" stroke="#0f172a" stroke-width="1.0" opacity="0.9" />
<circle cx="464.96" cy="325.96" r="31.09" fill="#64748b" stroke="#334155" stroke-width="1.0" opacity="0.17" />
<circle cx="464.96" cy="325.96" r="4.49" fill="#334155" stroke="#0f172a" stroke-width="1.0" opacity="0.9" />
<circle cx="427.42" cy="298.13" r="31.09" fill="#64748b" stroke="#334155" stroke-width="1.0" opacity="0.17" />
<circle cx="427.42" cy="298.13" r="4.49" fill="#334155" stroke="#0f172a" stroke-width="1.0" opacity="0.9" />
<circle cx="469.43" cy="311.64" r="31.09" fill="#64748b" stroke="#334155" stroke-width="1.0" opacity="0.17" />
<circle cx="469.43" cy="311.64" r="4.49" fill="#334155" stroke="#0f172a" stroke-width="1.0" opacity="0.9" />
<circle cx="451.81" cy="303.83" r="31.09" fill="#64748b" stroke="#334155" stroke-width="1.0" opacity="0.17" />
<circle cx="451.81" cy="303.83" r="4.49" fill="#334155" stroke="#0f172a" stroke-width="1.0" opacity="0.9" />
<circle cx="456.96" cy="316.00" r="31.09" fill="#64748b" stroke="#334155" stroke-width="1.0" opacity="0.17" />
<circle cx="456.96" cy="316.00" r="4.49" fill="#334155" stroke="#0f172a" stroke-width="1.0" opacity="0.9" />
<circle cx="443.20" cy="337.86" r="31.09" fill="#64748b" stroke="#334155" stroke-width="1.0" opacity="0.17" />
<circle cx="443.20" cy="337.86" r="4.49" fill="#334155" stroke="#0f172a" stroke-width="1.0" opacity="0.9" />
<circle cx="502.30" cy="323.42" r="31.09" fill="#64748b" stroke="#334155" stroke-width="1.0" opacity="0.17" />
<circle cx="502.30" cy="323.42" r="4.49" fill="#334155" stroke="#0f172a" stroke-width="1.0" opacity="0.9" />
<circle cx="477.05" cy="313.78" r="31.09" fill="#64748b" stroke="#334155" stroke-width="1.0" opacity="0.17" />
<circle cx="477.05" cy="313.78" r="4.49" fill="#334155" stroke="#0f172a" stroke-width="1.0" opacity="0.9" />
<circle cx="239.28" cy="1154.77" r="5.53" fill="#16a34a" stroke="#14532d" stroke-width="1.0" opacity="0.95" />
<circle cx="743.98" cy="1104.94" r="5.53" fill="#16a34a" stroke="#14532d" stroke-width="1.0" opacity="0.95" />
<circle cx="1151.81" cy="-38.03" r="5.53" fill="#16a34a" stroke="#14532d" stroke-width="1.0" opacity="0.95" />
<circle cx="190.17" cy="853.76" r="5.53" fill="#16a34a" stroke="#14532d" stroke-width="1.0" opacity="0.95" />
<circle cx="-177.63" cy="421.36" r="5.53" fill="#16a34a" stroke="#14532d" stroke-width="1.0" opacity="0.95" />
<circle cx="-145.50" cy="265.68" r="5.53" fill="#16a34a" stroke="#14532d" stroke-width="1.0" opacity="0.95" />
<circle cx="787.40" cy="673.97" r="5.53" fill="#16a34a" stroke="#14532d" stroke-width="1.0" opacity="0.95" />
<circle cx="107.71" cy="524.22" r="5.53" fill="#16a34a" stroke="#14532d" stroke-width="1.0" opacity="0.95" />
<circle cx="331.64" cy="692.33" r="5.53" fill="#16a34a" stroke="#14532d" stroke-width="1.0" opacity="0.95" />
<circle cx="631.56" cy="73.46" r="5.53" fill="#16a34a" stroke="#14532d" stroke-width="1.0" opacity="0.95" />
<circle cx="466.03" cy="65.49" r="5.53" fill="#16a34a" stroke="#14532d" stroke-width="1.0" opacity="0.95" />
<circle cx="83.73" cy="407.02" r="5.53" fill="#16a34a" stroke="#14532d" stroke-width="1.0" opacity="0.95" />
<circle cx="169.46" cy="279.86" r="5.53" fill="#16a34a" stroke="#14532d" stroke-width="1.0" opacity="0.95" />
<circle cx="740.86" cy="498.56" r="5.53" fill="#16a34a" stroke="#14532d" stroke-width="1.0" opacity="0.95" />
<circle cx="591.80" cy="149.42" r="5.53" fill="#16a34a" stroke="#14532d" stroke-width="1.0" opacity="0.95" />
<circle cx="299.06" cy="546.69" r="5.53" fill="#16a34a" stroke="#14532d" stroke-width="1.0" opacity="0.95" />
<circle cx="712.46" cy="460.46" r="5.53" fill="#16a34a" stroke="#14532d" stroke-width="1.0" opacity="0.95" />
<circle cx="713.38" cy="410.71" r="5.53" fill="#16a34a" stroke="#14532d" stroke-width="1.0" opacity="0.95" />
<circle cx="485.63" cy="161.66" r="5.53" fill="#16a34a" stroke="#14532d" stroke-width="1.0" opacity="0.95" />
<circle cx="601.50" cy="206.38" r="5.53" fill="#16a34a" stroke="#14532d" stroke-width="1.0" opacity="0.95" />
<text x="890" y="130" font-family="Inter, Arial, sans-serif" font-size="22" font-weight="700" fill="#0f172a" text-anchor="start">How to read it</text>
<text x="890" y="170" font-family="Inter, Arial, sans-serif" font-size="15" font-weight="500" fill="#334155" text-anchor="start">1. Grey points are BENIGN self samples.</text>
<text x="890" y="205" font-family="Inter, Arial, sans-serif" font-size="15" font-weight="500" fill="#334155" text-anchor="start">2. Grey halos are the self-tolerance radius r_s.</text>
<text x="890" y="240" font-family="Inter, Arial, sans-serif" font-size="15" font-weight="500" fill="#334155" text-anchor="start">3. Red candidates are rejected: too close to self.</text>
<text x="890" y="275" font-family="Inter, Arial, sans-serif" font-size="15" font-weight="500" fill="#334155" text-anchor="start">4. Green circles are mature V-detectors.</text>
<text x="890" y="310" font-family="Inter, Arial, sans-serif" font-size="15" font-weight="500" fill="#334155" text-anchor="start">5. A flow inside a mature detector is anomalous.</text>
<text x="890" y="365" font-family="Inter, Arial, sans-serif" font-size="22" font-weight="700" fill="#0f172a" text-anchor="start">AIS-Detect additions</text>
<text x="890" y="405" font-family="Inter, Arial, sans-serif" font-size="15" font-weight="500" fill="#334155" text-anchor="start">• Works after RobustScaler + PCA whitening</text>
<text x="890" y="435" font-family="Inter, Arial, sans-serif" font-size="15" font-weight="500" fill="#334155" text-anchor="start">• Uses variable detector radii</text>
<text x="890" y="465" font-family="Inter, Arial, sans-serif" font-size="15" font-weight="500" fill="#334155" text-anchor="start">• Calibrates benign false-positive behavior</text>
<text x="890" y="495" font-family="Inter, Arial, sans-serif" font-size="15" font-weight="500" fill="#334155" text-anchor="start">• Uses detector hit as primary NSA evidence</text>
<text x="890" y="575" font-family="Inter, Arial, sans-serif" font-size="15" font-weight="700" fill="#0f172a" text-anchor="start">Self samples: 90</text>
<text x="890" y="605" font-family="Inter, Arial, sans-serif" font-size="15" font-weight="700" fill="#0f172a" text-anchor="start">Mature detectors drawn: 20</text>
<text x="890" y="635" font-family="Inter, Arial, sans-serif" font-size="15" font-weight="700" fill="#0f172a" text-anchor="start">r_s: 0.045</text>
<text x="890" y="665" font-family="Inter, Arial, sans-serif" font-size="15" font-weight="700" fill="#0f172a" text-anchor="start">largest detector radius: 0.808</text>
<circle cx="95" cy="748" r="7" fill="#334155" opacity="0.8"/>
<text x="111" y="753" font-family="Inter, Arial, sans-serif" font-size="13" font-weight="600" fill="#334155" text-anchor="start">Self sample</text>
<circle cx="285" cy="748" r="7" fill="#ef4444" opacity="0.8"/>
<text x="301" y="753" font-family="Inter, Arial, sans-serif" font-size="13" font-weight="600" fill="#334155" text-anchor="start">Rejected candidate</text>
<circle cx="475" cy="748" r="7" fill="#38bdf8" opacity="0.8"/>
<text x="491" y="753" font-family="Inter, Arial, sans-serif" font-size="13" font-weight="600" fill="#334155" text-anchor="start">Candidate outside self</text>
<circle cx="665" cy="748" r="7" fill="#22c55e" opacity="0.8"/>
<text x="681" y="753" font-family="Inter, Arial, sans-serif" font-size="13" font-weight="600" fill="#334155" text-anchor="start">Mature detector coverage</text>
</svg>